<?xml version="1.0" encoding="utf-8"?>
<!-- Editable vector artwork. Source: tools/draw_characters.py -->
<svg xmlns="http://www.w3.org/2000/svg" width="320" height="320" viewBox="0 0 320 320" role="img" aria-labelledby="title">
  <title id="title">ググガガ · 待機</title>
  <desc>Original SVG redraw of the project character reference. Transparent background; all visible artwork is vector geometry.</desc>
  <g stroke="#3e333c" stroke-width="3.2" stroke-linecap="round" stroke-linejoin="round">
    <g id="penguin-body">
    <g >
    <path d="M130 194 Q105 186 87 172 Q66 166 75 189 Q84 215 114 224Z" fill="#4c4657"/>
    </g>
    <g transform="translate(320 0) scale(-1 1)">
    <path d="M130 194 Q105 186 87 172 Q66 166 75 189 Q84 215 114 224Z" fill="#4c4657"/>
    </g>
    <path d="M130 186 Q104 205 110 247 Q112 274 160 279 Q207 274 213 247 Q217 208 190 186Z" fill="#4c4657"/>
    <path d="M160 201 Q127 202 126 240 Q124 265 160 266 Q195 263 194 241 Q193 207 160 201Z" fill="#fff8eb" stroke-width="2.8"/>
    <path d="M129 268 Q112 275 115 285 Q132 293 151 282 L151 273Z" fill="#e9b548" stroke-width="2.6"/>
    <path d="M173 270 Q195 264 204 277 Q209 286 188 289 L169 281Z" fill="#e9b548" stroke-width="2.6"/>
    <path d="M125 280 l4 5 M192 279 l-1 5" fill="none" stroke="#b27e3d" stroke-width="1.8"/>
    </g>
    <g id="hooded-head">
    <path d="M82 135 Q80 67 155 58 Q228 55 237 130 L239 173 Q229 204 159 207 Q88 201 79 172Z" fill="#4c4657"/>
    <path d="M97 113 Q113 75 158 74 Q201 72 222 109" fill="none" stroke="#70667a" stroke-width="5"/>
    <path d="M98 154 Q95 106 159 105 Q221 105 221 152 Q218 190 160 196 Q104 190 98 154Z" fill="#ffdbb7"/>
    <path d="M100 156 L96 139 Q105 105 158 103 Q206 102 221 137 L222 168 L211 155 L209 136 L195 132 L196 141 L180 138 L179 130 L162 131 L161 142 L146 141 L145 132 L129 136 L128 146 L114 146 L111 171Z" fill="#53404a" stroke-width="2.5"/>
    <path d="M115 127 Q138 114 159 117 M180 118 q17 1 27 9" fill="none" stroke="#8c6570" stroke-width="3"/>
    <g id="expression">
    <ellipse cx="136" cy="143" rx="12.5" ry="16.5" fill="#fffdfa" stroke-width="2.3"/>
    <ellipse cx="137" cy="144.5" rx="8.4" ry="12.5" fill="#817784" stroke-width="1.8"/>
    <ellipse cx="137" cy="142" rx="4.8" ry="9.0" fill="#3e333c" stroke="none"/>
    <circle cx="133.5" cy="137" r="3.7" fill="#fffdfa" stroke="none"/>
    <circle cx="140" cy="148" r="1.6" fill="#fffdfa" stroke="none"/>
    <path d="M124 135 Q136 124 147 134" fill="none" stroke-width="3.6"/>
    <path d="M124 136 l-4 -4" fill="none" stroke-width="2.6"/>
    <ellipse cx="184" cy="143" rx="12.5" ry="16.5" fill="#fffdfa" stroke-width="2.3"/>
    <ellipse cx="185" cy="144.5" rx="8.4" ry="12.5" fill="#817784" stroke-width="1.8"/>
    <ellipse cx="185" cy="142" rx="4.8" ry="9.0" fill="#3e333c" stroke="none"/>
    <circle cx="181.5" cy="137" r="3.7" fill="#fffdfa" stroke="none"/>
    <circle cx="188" cy="148" r="1.6" fill="#fffdfa" stroke="none"/>
    <path d="M172 135 Q184 124 195 134" fill="none" stroke-width="3.6"/>
    <path d="M172 136 l-4 -4" fill="none" stroke-width="2.6"/>
    <ellipse cx="119" cy="162" rx="10" ry="5" fill="#ed9a9c" stroke="none" opacity=".58"/>
    <ellipse cx="201" cy="162" rx="10" ry="5" fill="#ed9a9c" stroke="none" opacity=".58"/>
    <path d="M158 155 q-2 5 3 5" fill="none" stroke="#d39a7d" stroke-width="1.8"/>
    <path d="M150 173 Q160 180 171 171" fill="none" stroke-width="2.4"/>
    </g>
    <ellipse cx="133" cy="91" rx="7" ry="9" fill="#fff9ee" stroke-width="2.2"/>
    <ellipse cx="186" cy="91" rx="7" ry="9" fill="#fff9ee" stroke-width="2.2"/>
    <circle cx="134" cy="92" r="3" fill="#3e333c" stroke="none"/>
    <circle cx="185" cy="92" r="3" fill="#3e333c" stroke="none"/>
    <path d="M141 111 L159 97 L179 111 Q161 118 141 111Z" fill="#f1c65c" stroke-width="2.5"/>
    <path d="M148 109 l11 -7 l9 6" fill="none" stroke="#ffe6a3" stroke-width="2"/>
    <path d="M101 128 l8 5 M99 135 l8 5" fill="none" stroke="#edb4b4" stroke-width="2.5"/>
    </g>
    <g transform="translate(160 207) scale(0.65)" stroke-width="2.4">
    <path d="M0 0 Q-10 -12 -20 -9 Q-23 0 -19 10 Q-9 9 0 0Z" fill="#b4a4b8"/>
    <path d="M0 0 Q10 -12 20 -9 Q23 0 19 10 Q9 9 0 0Z" fill="#b4a4b8"/>
    <path d="M-4 2 L-10 21 L0 15 L9 22 L5 2" fill="#b4a4b8"/>
    <circle cx="0" cy="0" r="5" fill="#b4a4b8"/>
    </g>
    <g id="mood-marks">
    </g>
  </g>
</svg>
