<?xml version="1.0" encoding="utf-8"?>
<!-- Editable vector artwork. Source: tools/draw_characters.py -->
<svg xmlns="http://www.w3.org/2000/svg" width="320" height="320" viewBox="0 0 320 320" role="img" aria-labelledby="title">
  <title id="title">喵白白 · 待機</title>
  <desc>Original SVG redraw of the project character reference. Transparent background; all visible artwork is vector geometry.</desc>
  <g stroke="#3e333c" stroke-width="3.2" stroke-linecap="round" stroke-linejoin="round">
    <g id="body">
    <path d="M199 229 Q239 239 243 208 Q243 191 255 196 Q272 229 245 248 Q224 262 200 249" fill="#fff9ee"/>
    <path d="M129 186 Q113 202 112 235 Q105 263 130 272 Q159 282 192 271 Q214 263 207 236 Q207 201 190 186Z" fill="#eee6d9"/>
    <ellipse cx="133" cy="269" rx="15" ry="16" fill="#fff9ee" stroke-width="2.8"/>
    <path d="M128 275 v5 M136 275 v5" fill="none" stroke="#c6aea2" stroke-width="1.8"/>
    <ellipse cx="186" cy="269" rx="15" ry="16" fill="#fff9ee" stroke-width="2.8"/>
    <path d="M181 275 v5 M189 275 v5" fill="none" stroke="#c6aea2" stroke-width="1.8"/>
    <path d="M160 199 v62 M132 242 q27 12 55 0 M137 211 v14 M182 211 v14" fill="none" stroke="#b3a6a0" stroke-width="2.2"/>
    <path d="M120 234 Q129 228 139 232 L140 249 Q129 254 119 246Z M201 233 Q192 229 182 232 L182 249 Q193 253 202 245Z" fill="#f7f0e4" stroke="#b3a6a0" stroke-width="2"/>
    </g>
    <g id="head">
    <path d="M98 102 Q77 75 81 42 Q111 43 131 77 M189 77 Q212 43 239 42 Q242 77 221 104" fill="#fbf6eb"/>
    <path d="M94 87 Q89 66 90 56 Q111 63 119 79Z M204 79 Q224 57 231 56 Q231 77 223 91Z" fill="#eaa2a2" stroke-width="2.3"/>
    <path d="M88 138 Q86 75 158 67 Q228 68 233 133 L230 170 Q224 206 160 209 Q95 204 88 171Z" fill="#eee6d9"/>
    <path d="M101 140 Q101 87 159 82 Q215 84 220 140 L216 164 Q209 191 160 195 Q111 190 102 164Z" fill="#fbf6eb" stroke="#ad9e98" stroke-width="2.8"/>
    <path d="M137 86 L147 107 L157 91 L163 112 L177 85Z" fill="#7b7374" stroke="none"/>
    <g id="expression">
    <ellipse cx="136" cy="143" rx="12.5" ry="16.5" fill="#fffdfa" stroke-width="2.3"/>
    <ellipse cx="137" cy="144.5" rx="8.4" ry="12.5" fill="#8c9c63" stroke-width="1.8"/>
    <ellipse cx="137" cy="142" rx="3.8" ry="9.0" fill="#3e333c" stroke="none"/>
    <circle cx="133.5" cy="137" r="3.7" fill="#fffdfa" stroke="none"/>
    <circle cx="140" cy="148" r="1.6" fill="#fffdfa" stroke="none"/>
    <path d="M124 135 Q136 124 147 134" fill="none" stroke-width="3.6"/>
    <ellipse cx="184" cy="143" rx="12.5" ry="16.5" fill="#fffdfa" stroke-width="2.3"/>
    <ellipse cx="185" cy="144.5" rx="8.4" ry="12.5" fill="#8c9c63" stroke-width="1.8"/>
    <ellipse cx="185" cy="142" rx="3.8" ry="9.0" fill="#3e333c" stroke="none"/>
    <circle cx="181.5" cy="137" r="3.7" fill="#fffdfa" stroke="none"/>
    <circle cx="188" cy="148" r="1.6" fill="#fffdfa" stroke="none"/>
    <path d="M172 135 Q184 124 195 134" fill="none" stroke-width="3.6"/>
    <ellipse cx="119" cy="162" rx="10" ry="5" fill="#ed9a9c" stroke="none" opacity=".58"/>
    <ellipse cx="201" cy="162" rx="10" ry="5" fill="#ed9a9c" stroke="none" opacity=".58"/>
    <path d="M154 158 Q160 154 166 158 L160 164Z" fill="#dd8d93" stroke-width="1.8"/>
    <path d="M160 164 v4 Q154 177 149 169 M160 168 Q167 177 172 169" fill="none" stroke-width="2.4"/>
    <path d="M111 160 l-17 -4 M111 167 l-15 2 M209 160 l17 -4 M209 167 l15 2" fill="none" stroke="#9d8582" stroke-width="2"/>
    </g>
    <path d="M96 141 Q97 91 144 82 M177 83 Q215 93 223 132" fill="none" stroke="#fffdf6" stroke-width="5"/>
    </g>
    <g id="accessories">
    </g>
    <g id="mood-marks">
    </g>
  </g>
</svg>
